<?xml version="1.0" standalone="no"?>
<!DOCTYPE svg PUBLIC "-//W3C//DTD SVG 20010904//EN"
 "http://www.w3.org/TR/2001/REC-SVG-20010904/DTD/svg10.dtd">
<svg version="1.0" xmlns="http://www.w3.org/2000/svg"
 width="460.000000pt" height="307.000000pt" viewBox="0 0 460.000000 307.000000"
 preserveAspectRatio="xMidYMid meet">

<g transform="translate(0.000000,307.000000) scale(0.100000,-0.100000)"
fill="#000000" stroke="none">
<path d="M2458 3010 c-9 -6 -29 -12 -45 -14 -36 -4 -84 -27 -78 -37 3 -4 14
-5 25 -2 11 3 20 0 20 -6 0 -6 -6 -11 -12 -11 -14 -1 -58 -34 -58 -44 0 -3 13
-12 29 -20 26 -14 30 -14 41 -1 7 9 29 23 49 32 49 23 91 54 91 68 0 11 -31
45 -41 45 -2 0 -12 -5 -21 -10z m-38 -64 c0 -3 -4 -8 -10 -11 -5 -3 -10 -1
-10 4 0 6 5 11 10 11 6 0 10 -2 10 -4z"/>
<path d="M2054 2983 c2 -10 7 -28 11 -40 5 -17 2 -23 -9 -23 -8 0 -18 5 -21
10 -9 15 -27 12 -23 -5 2 -8 28 -32 58 -53 35 -25 54 -44 52 -55 -2 -9 3 -17
9 -17 7 0 28 -12 46 -26 25 -19 38 -23 45 -16 7 7 17 8 29 1 12 -6 26 -5 43 3
32 14 33 24 4 34 -12 3 -29 13 -37 21 -12 13 -12 16 0 23 11 7 10 10 -4 16 -9
3 -17 15 -17 25 0 19 -44 48 -55 37 -3 -3 -2 -24 4 -47 10 -45 -3 -57 -19 -17
-5 13 -15 28 -22 33 -7 4 -13 13 -13 19 0 15 -65 94 -77 94 -5 0 -7 -8 -4 -17z"/>
<path d="M2557 2868 c-21 -10 -37 -14 -37 -8 0 5 5 10 12 10 6 0 9 2 6 5 -7 7
-88 -38 -88 -49 0 -4 7 -5 16 -2 37 14 32 -8 -6 -31 -30 -18 -44 -22 -49 -14
-5 8 -17 3 -37 -15 -16 -14 -23 -23 -16 -20 27 15 10 -13 -20 -32 l-31 -20 31
-16 c27 -14 33 -14 59 -1 15 8 33 15 39 15 5 0 23 13 39 29 15 17 56 47 91 67
67 39 77 58 46 85 -17 15 -22 14 -55 -3z m-35 -70 c-7 -7 -12 -8 -12 -2 0 14
12 26 19 19 2 -3 -1 -11 -7 -17z m-122 -78 c0 -5 -5 -10 -11 -10 -5 0 -7 5 -4
10 3 6 8 10 11 10 2 0 4 -4 4 -10z"/>
<path d="M2310 2861 c0 -6 5 -13 10 -16 6 -3 10 -15 10 -26 0 -20 24 -26 35
-9 3 6 2 10 -3 10 -5 0 -14 11 -20 25 -11 24 -32 34 -32 16z"/>
<path d="M1958 2844 c-4 -3 -2 -19 3 -37 10 -37 7 -42 -20 -28 -14 8 -22 8
-26 1 -8 -12 32 -53 72 -74 l26 -13 -24 -16 c-13 -9 -33 -16 -44 -16 -50 0
-90 -7 -88 -16 1 -6 10 -12 20 -13 22 -5 42 -22 25 -22 -19 0 -26 -3 -40 -17
-22 -22 -36 -15 -16 8 16 19 13 18 -23 -5 -24 -14 -54 -26 -67 -26 -14 0 -28
-4 -31 -10 -3 -6 4 -10 17 -10 13 0 30 -4 38 -10 12 -7 11 -10 -5 -15 -11 -4
-29 -11 -40 -18 -11 -6 -38 -12 -60 -13 -22 -2 -56 -10 -75 -18 l-35 -15 30
-1 c17 0 40 -3 53 -6 l23 -7 -22 -23 c-25 -27 -61 -35 -39 -9 10 12 9 15 -4
15 -9 0 -19 -7 -22 -15 -7 -18 -44 -20 -44 -2 0 8 -3 9 -8 1 -4 -6 -20 -16
-37 -21 -31 -11 -27 -15 28 -27 16 -4 25 -11 21 -17 -3 -6 -13 -8 -20 -5 -8 3
-33 -6 -54 -19 -39 -24 -40 -25 -40 -5 0 20 -1 20 -35 -2 -19 -13 -35 -26 -35
-30 0 -4 16 -10 35 -14 34 -6 35 -7 19 -25 -18 -20 -64 -26 -64 -8 0 5 -6 7
-12 3 -7 -5 -30 -9 -52 -10 -21 -1 -42 -8 -47 -16 -7 -11 -9 -11 -9 1 0 11 -3
11 -16 0 -14 -12 -10 -15 37 -27 30 -7 57 -18 60 -24 4 -6 46 17 105 58 55 37
122 83 149 102 28 18 58 43 67 55 10 12 18 18 18 14 0 -15 40 14 40 30 0 12 3
13 13 4 10 -8 20 -3 43 20 16 17 43 36 60 44 17 7 46 26 65 42 19 17 52 39 74
51 22 11 48 29 59 40 27 30 71 37 103 16 l27 -17 -28 -22 c-22 -17 -24 -23
-13 -28 8 -3 25 -3 36 0 30 8 26 -2 -11 -28 -28 -20 -63 -29 -125 -29 -33 0
-38 -19 -6 -26 15 -3 33 -7 38 -8 6 -2 -10 -12 -33 -24 -32 -15 -42 -17 -38
-7 5 15 -13 11 -49 -11 -11 -6 -33 -15 -50 -19 l-30 -8 43 -9 c40 -9 42 -11
25 -23 -10 -7 -21 -11 -26 -8 -4 2 -14 0 -21 -6 -7 -6 -34 -13 -59 -16 -26 -2
-59 -11 -75 -19 l-27 -15 35 -1 c19 -1 44 -5 54 -9 18 -7 18 -8 3 -14 -9 -3
-17 -13 -17 -22 0 -8 -9 -15 -20 -15 -22 0 -27 16 -8 22 9 3 9 6 1 11 -7 4
-21 -2 -32 -14 -13 -14 -26 -19 -39 -15 -20 7 -72 -11 -72 -25 0 -4 14 -9 32
-11 17 -2 34 -9 36 -17 3 -10 -1 -12 -18 -8 -13 3 -34 -2 -53 -14 -39 -23 -48
-24 -40 -3 4 12 -5 9 -35 -10 -23 -14 -45 -26 -49 -26 -5 0 -1 4 7 10 8 5 12
11 9 14 -8 8 -32 -11 -26 -22 4 -5 25 -12 48 -16 41 -6 41 -7 24 -26 -15 -16
-28 -19 -72 -16 -49 3 -123 -10 -138 -25 -3 -4 22 -12 55 -18 36 -7 58 -16 54
-22 -3 -6 -18 -8 -32 -4 -16 4 -28 1 -33 -7 -4 -7 -30 -14 -56 -15 -78 -4
-113 -9 -124 -20 -7 -7 2 -12 28 -17 21 -3 45 -10 53 -16 13 -8 13 -11 -2 -27
-11 -11 -18 -13 -18 -5 0 17 -32 15 -56 -3 -10 -8 -30 -14 -44 -15 -20 0 -22
2 -10 11 12 9 11 9 -5 4 -11 -4 -28 -10 -38 -12 -26 -8 -15 -26 21 -37 34 -10
43 -25 15 -25 -41 1 -111 -13 -145 -28 -34 -14 -36 -17 -21 -28 15 -11 15 -13
-5 -19 -12 -4 -21 -12 -19 -18 1 -6 -17 -17 -40 -24 -34 -10 -43 -10 -43 0 0
8 -12 11 -35 8 -47 -6 -44 -15 10 -31 77 -23 50 -42 -65 -47 -36 -1 -78 -7
-95 -12 -30 -9 -30 -9 18 -17 26 -4 47 -10 47 -14 0 -14 -24 -31 -44 -31 -20
-1 -20 -2 3 -21 21 -18 26 -18 41 -4 9 8 19 15 23 15 3 0 34 19 68 43 34 23
69 47 78 52 8 6 67 45 129 88 62 42 115 77 116 77 5 0 452 299 506 339 25 18
44 37 42 43 -1 5 2 6 8 3 7 -4 21 2 33 13 12 11 32 23 45 27 13 4 22 14 22 26
0 10 5 19 11 19 5 0 7 -5 3 -11 -11 -18 28 6 50 30 11 12 38 30 60 40 23 10
50 28 61 40 11 13 34 29 51 36 18 7 50 29 72 49 22 20 46 36 54 36 9 0 27 9
41 20 14 11 30 20 36 20 6 0 28 -9 48 -20 21 -11 43 -20 49 -20 7 0 14 -6 17
-12 2 -7 29 -26 58 -41 30 -16 93 -52 141 -80 49 -29 166 -97 260 -151 95 -55
180 -105 188 -111 8 -7 45 -28 82 -48 37 -19 80 -44 96 -55 34 -25 316 -180
349 -193 13 -5 23 -14 23 -20 0 -6 9 -9 19 -6 10 2 25 1 32 -4 12 -7 11 -9 -1
-9 -19 0 15 -24 50 -35 14 -4 37 -18 52 -31 15 -12 44 -28 65 -34 21 -7 46
-20 55 -30 9 -10 38 -28 65 -40 26 -13 56 -30 66 -39 17 -14 20 -14 30 0 7 9
22 19 35 23 23 8 28 17 15 30 -5 4 -8 12 -8 18 0 6 -10 14 -22 19 -25 9 -29
-1 -13 -32 13 -22 10 -23 -27 -7 -37 17 -53 33 -53 53 0 8 -7 18 -16 22 -8 3
-13 11 -10 18 4 11 -13 25 -30 25 -5 0 1 -25 14 -60 5 -11 -1 -10 -23 4 -17
11 -36 26 -43 33 -11 11 -11 13 3 13 14 0 14 2 3 13 -7 8 -23 19 -36 26 -12 6
-22 18 -22 25 0 11 -20 26 -35 26 -2 0 2 -13 8 -30 6 -16 8 -32 5 -35 -8 -9
-80 63 -97 97 -12 23 -61 67 -61 54 0 -2 7 -20 15 -39 20 -48 20 -63 0 -47 -9
7 -18 10 -22 7 -7 -8 -33 11 -33 25 0 5 10 6 21 3 30 -10 14 13 -17 25 -13 5
-28 20 -33 33 -10 25 -38 53 -47 45 -2 -3 0 -17 6 -32 13 -36 13 -49 -2 -43
-7 2 -13 10 -13 18 0 8 -19 26 -42 41 -42 27 -57 46 -28 34 8 -3 15 -1 15 4 0
6 -3 10 -7 10 -5 0 -21 11 -38 25 -19 16 -23 23 -11 18 13 -4 17 -3 12 5 -4 7
-14 12 -23 12 -11 0 -14 -6 -9 -25 20 -83 22 -76 -13 -59 -21 11 -31 23 -31
39 0 12 -7 28 -15 35 -8 7 -13 16 -10 20 3 5 -6 17 -20 28 -14 11 -25 25 -25
31 0 6 -6 11 -14 11 -12 0 -12 -7 0 -52 7 -29 14 -54 14 -55 0 -2 -7 -3 -15
-3 -9 0 -15 9 -15 23 0 13 -9 26 -22 32 -12 6 -26 24 -31 40 -6 17 -16 35 -24
40 -8 6 -19 21 -26 34 -17 34 -43 42 -32 10 13 -42 18 -89 9 -89 -19 0 -32 16
-31 34 1 12 -10 25 -28 36 -16 9 -31 26 -33 37 -2 11 -16 35 -32 54 l-28 34 8
-45 c5 -25 6 -47 3 -50 -2 -3 -17 10 -31 28 -59 74 -94 103 -107 92 -26 -22
-96 24 -100 65 -1 6 -8 24 -18 40 l-16 30 3 -52 c2 -29 0 -53 -4 -53 -17 0
-50 40 -66 81 -17 41 -64 112 -71 105 -2 -2 3 -29 12 -61 8 -32 13 -61 10 -63
-6 -6 -35 18 -35 30 0 5 -9 18 -20 30 -11 12 -19 27 -18 33 2 6 -11 30 -29 54
-35 47 -53 40 -34 -12 7 -19 7 -27 0 -27 -16 0 -59 36 -52 44 3 3 -6 17 -21
31 -15 14 -22 25 -16 25 8 0 8 6 0 20 -6 11 -17 20 -25 20 -8 0 -15 6 -15 14
0 8 -7 16 -15 20 -8 3 -15 3 -15 0 0 -2 7 -21 15 -41 8 -19 15 -47 15 -62 l0
-26 -20 33 c-11 17 -25 32 -31 32 -6 0 -18 7 -26 16 -13 12 -13 18 -4 24 10 5
9 9 -3 13 -9 4 -16 13 -16 20 0 18 -32 47 -53 47 -13 0 -14 -5 -6 -32 12 -43
11 -61 -2 -53 -6 4 -8 9 -5 12 3 3 -6 14 -19 25 -14 11 -25 28 -25 39 0 10 -9
24 -20 31 -11 7 -20 17 -20 21 0 9 -25 37 -33 37 -2 0 -6 -3 -9 -6z m217 -284
c-3 -5 -12 -10 -18 -10 -7 0 -6 4 3 10 19 12 23 12 15 0z m215 -52 c0 -13 -23
-5 -28 10 -2 7 2 10 12 6 9 -3 16 -11 16 -16z m372 -210 c-8 -8 -16 -7 -28 3
-15 12 -15 14 7 19 26 7 37 -6 21 -22z m-1777 -554 c-23 -17 -32 -10 -15 11 7
8 17 12 23 8 6 -4 3 -11 -8 -19z m-225 -149 c-7 -8 -19 -15 -27 -15 -13 0 -13
3 -3 15 7 8 19 15 27 15 13 0 13 -3 3 -15z"/>
<path d="M2468 2697 c-21 -12 -38 -25 -38 -28 0 -9 94 -69 107 -69 6 0 16 -7
23 -15 7 -8 40 -30 74 -48 33 -18 113 -66 177 -105 64 -39 125 -75 135 -79 11
-4 24 -11 29 -16 23 -19 261 -157 273 -157 20 0 13 27 -12 43 -13 9 -27 28
-30 43 -4 16 -16 34 -27 42 -10 7 -19 21 -19 31 0 11 -7 22 -16 25 -24 9 -27
8 -19 -11 10 -27 16 -93 7 -93 -12 1 -46 30 -34 30 20 0 1 30 -29 46 -17 8
-29 23 -29 34 0 11 -14 34 -30 52 -17 18 -28 26 -26 18 3 -8 7 -35 10 -60 l6
-45 -25 30 c-14 17 -30 41 -36 55 -5 14 -25 38 -44 53 -37 29 -41 26 -36 -25
3 -22 -22 -23 -39 -3 -10 12 -10 15 4 15 9 0 16 5 16 10 0 9 -8 12 -26 9 -13
-2 -64 56 -60 68 4 11 -20 73 -29 73 -2 0 -2 -25 1 -55 2 -30 1 -55 -4 -55
-13 0 -56 49 -49 56 3 4 -3 18 -13 32 -11 13 -20 30 -20 36 0 7 -13 25 -30 41
-34 33 -35 32 -15 -24 8 -22 12 -41 9 -41 -2 0 0 -9 5 -19 9 -16 8 -18 -7 -14
-19 5 -72 82 -72 106 0 31 -24 36 -62 14z m12 -37 c0 -5 -4 -10 -9 -10 -6 0
-13 5 -16 10 -3 6 1 10 9 10 9 0 16 -4 16 -10z"/>
<path d="M2836 2526 c7 -17 44 -22 44 -6 0 6 -4 10 -9 10 -5 0 -17 3 -25 6
-12 5 -15 2 -10 -10z"/>
<path d="M2750 2381 c0 -6 5 -13 10 -16 6 -3 10 1 10 9 0 9 -4 16 -10 16 -5 0
-10 -4 -10 -9z"/>
<path d="M1347 2313 c-4 -3 -7 -13 -7 -22 1 -13 3 -13 11 2 11 19 8 33 -4 20z"/>
<path d="M3271 2238 c6 -23 12 -46 16 -51 3 -5 0 -13 -7 -17 -17 -11 4 -25
213 -141 37 -21 67 -35 67 -33 0 3 7 -2 16 -10 8 -9 23 -16 32 -16 10 0 23 -9
30 -21 8 -13 19 -18 31 -14 13 4 20 0 24 -14 3 -11 17 -22 35 -26 16 -3 38
-15 48 -26 9 -10 23 -19 29 -19 7 0 18 -7 25 -15 7 -8 22 -15 33 -15 11 0 39
-15 61 -34 23 -19 59 -41 79 -50 20 -8 37 -19 37 -24 0 -6 16 -17 36 -27 31
-14 40 -15 60 -4 19 10 21 15 12 26 -9 11 -9 16 1 23 10 6 7 12 -13 25 -14 9
-23 21 -21 26 3 4 -8 15 -25 24 -32 17 -38 9 -19 -27 14 -26 6 -32 -22 -16
-35 20 -49 35 -49 53 0 8 -7 18 -16 22 -8 3 -20 17 -25 30 -5 13 -14 21 -19
18 -8 -5 -7 -11 0 -20 7 -8 10 -21 8 -30 -3 -15 -6 -14 -27 4 -13 12 -30 21
-38 21 -7 0 -13 5 -13 11 0 5 5 7 10 4 22 -14 8 16 -15 31 -13 9 -27 24 -30
35 -4 10 -13 19 -21 19 -15 0 -19 -12 -7 -24 16 -16 10 -36 -10 -36 -14 0 -18
3 -10 8 8 5 1 15 -23 31 -19 13 -34 31 -34 40 0 17 -56 78 -64 70 -2 -2 2 -22
9 -44 16 -44 13 -54 -9 -36 -8 7 -19 10 -24 7 -6 -3 -15 1 -22 9 -10 13 -9 15
10 15 19 0 20 2 10 15 -7 8 -18 15 -26 15 -7 0 -15 8 -19 19 -7 23 -51 72 -58
64 -3 -2 3 -24 13 -48 18 -42 18 -43 -1 -38 -10 3 -19 13 -19 22 0 9 -18 27
-40 40 -26 16 -36 27 -28 32 7 4 16 5 20 3 4 -3 8 -3 8 -1 0 7 -70 47 -82 47
-6 0 -7 -7 -3 -17 20 -50 19 -53 -14 -42 -28 10 -36 23 -32 55 1 7 -5 14 -14
18 -8 3 -15 13 -15 23 0 16 -50 73 -63 73 -3 0 -1 -19 4 -42z"/>
<path d="M3395 2190 c3 -5 16 -10 28 -10 18 0 19 2 7 10 -20 13 -43 13 -35 0z"/>
<path d="M1247 2156 c-16 -16 -77 -19 -77 -3 0 5 -7 4 -15 -3 -8 -7 -30 -14
-47 -15 -48 -4 -48 -4 -48 -14 0 -5 17 -11 38 -15 20 -3 44 -11 52 -16 13 -9
12 -12 -5 -26 -12 -9 -21 -11 -23 -4 -5 15 -38 12 -52 -5 -7 -9 -26 -15 -44
-13 -92 6 -116 -14 -41 -33 45 -11 61 -28 28 -28 -49 -1 -112 -12 -145 -26
-47 -19 -49 -19 -41 3 6 15 4 15 -15 -2 -27 -23 -28 -36 -3 -29 16 4 88 -24
79 -31 -1 -2 -14 -9 -28 -16 -23 -12 -24 -12 -11 4 8 9 11 20 7 24 -4 4 -15
-3 -25 -14 -19 -24 -73 -40 -93 -28 -11 7 -32 8 -69 5 -5 -1 -7 -6 -3 -12 4
-8 9 -7 15 2 6 10 9 11 9 2 0 -7 5 -13 10 -13 6 0 22 -7 36 -16 l24 -17 -23
-12 c-14 -7 -47 -10 -86 -7 -34 2 -72 0 -84 -6 -12 -6 -29 -12 -37 -15 -8 -2
9 -7 38 -11 28 -5 52 -12 52 -16 0 -4 10 -6 23 -3 21 4 21 4 2 -9 -23 -14 -58
-20 -132 -20 -49 0 -51 -1 -40 -19 7 -11 29 -25 49 -31 34 -10 40 -9 72 16 19
14 38 26 41 26 4 0 38 23 76 50 38 28 71 50 75 50 3 0 38 22 77 48 40 27 89
59 109 73 21 13 38 27 38 32 0 4 5 7 10 7 6 0 43 22 83 48 40 27 98 66 130 86
31 21 60 43 64 49 3 6 1 7 -5 3 -7 -4 -12 -2 -12 3 0 15 -16 14 -33 -3z"/>
<path d="M2490 1790 c0 -57 1 -60 25 -60 23 0 25 3 25 48 0 48 -12 72 -37 72
-9 0 -13 -17 -13 -60z"/>
<path d="M3145 1810 c10 -11 20 -18 23 -15 7 6 -18 35 -31 35 -5 0 -2 -9 8
-20z"/>
<path d="M194 1803 c2 -10 7 -28 11 -40 7 -26 -6 -30 -25 -8 -13 16 -30 11
-30 -8 0 -7 28 -30 61 -52 91 -59 125 -93 82 -79 -15 5 -15 3 1 -10 11 -9 27
-14 37 -11 9 3 22 -2 30 -12 9 -11 10 -14 2 -9 -17 10 -17 -9 0 -22 10 -9 19
-7 36 4 22 16 24 15 59 -17 20 -19 39 -35 42 -37 2 -2 -2 -7 -10 -12 -8 -5
-16 -5 -18 -1 -2 5 -17 4 -35 -2 -18 -5 -38 -11 -44 -13 -28 -7 -11 -20 28
-21 22 -1 49 -5 60 -8 24 -8 16 -25 -10 -18 -10 2 -25 -2 -32 -10 -8 -8 -26
-18 -38 -22 -20 -6 -23 -4 -18 9 6 15 4 15 -22 1 -16 -8 -31 -10 -33 -5 -2 5
-18 2 -36 -7 -30 -14 -31 -17 -15 -28 10 -7 31 -15 47 -19 31 -8 27 -20 -7
-23 -99 -7 -140 -14 -159 -27 -23 -16 -17 -22 29 -29 33 -5 38 -14 14 -27 -12
-6 -21 -15 -21 -20 0 -15 37 -12 54 5 8 8 18 15 21 15 4 0 43 25 86 55 l80 54
48 -34 c27 -19 53 -35 58 -35 6 0 16 -7 24 -16 7 -9 47 -36 88 -61 42 -24 90
-54 106 -65 187 -125 247 -151 207 -90 -9 15 -21 30 -27 34 -6 5 -6 8 0 8 12
0 -62 70 -74 70 -5 0 -6 -11 -4 -24 6 -30 -9 -40 -33 -20 -18 15 -18 15 3 11
15 -3 20 -1 16 9 -3 8 -9 15 -14 15 -5 1 -13 2 -18 3 -20 2 -55 51 -56 75 0
18 -6 27 -20 29 -15 3 -17 1 -9 -8 12 -12 7 -60 -6 -60 -4 0 -13 7 -20 15 -7
8 -17 12 -23 8 -6 -3 -7 -1 -3 5 10 17 -44 132 -61 132 -8 0 -12 4 -8 9 3 5 0
13 -6 17 -11 7 -9 -13 7 -68 3 -11 0 -18 -8 -18 -8 0 -6 -4 5 -11 24 -14 22
-32 -3 -19 -11 6 -20 16 -20 22 0 6 -8 20 -17 30 -9 10 -22 34 -29 53 -10 31
-9 36 15 59 32 31 53 32 89 7 50 -34 167 -108 192 -121 14 -7 27 -16 30 -20 3
-4 43 -31 90 -60 47 -29 117 -74 155 -99 39 -26 77 -51 85 -55 8 -3 62 -38
120 -76 147 -97 337 -214 390 -241 25 -13 51 -31 57 -40 8 -11 21 -15 35 -11
17 4 20 2 15 -11 -4 -12 3 -19 28 -27 18 -6 53 -26 77 -45 24 -19 55 -37 71
-41 15 -3 32 -14 37 -24 5 -10 35 -31 66 -46 31 -15 58 -33 61 -40 3 -8 33
-27 68 -43 35 -17 66 -39 69 -49 6 -19 45 -42 70 -42 7 0 23 -12 37 -26 13
-14 46 -37 73 -51 27 -14 72 -41 100 -60 50 -34 81 -40 81 -13 0 8 5 18 10 22
6 4 -5 20 -25 37 -29 24 -31 29 -12 24 36 -9 25 6 -17 24 -22 10 -43 26 -46
38 -4 13 -8 15 -12 7 -2 -6 -10 -9 -16 -6 -7 3 -1 -3 13 -14 14 -12 22 -23 19
-27 -11 -11 -74 31 -74 49 0 20 -30 40 -46 31 -5 -4 -28 5 -50 19 -40 27 -53
51 -21 39 9 -4 1 9 -18 28 -28 27 -36 31 -41 19 -4 -8 -2 -23 3 -32 15 -30
-15 -21 -48 14 -16 17 -23 28 -16 24 17 -10 15 9 -3 27 -8 8 -12 17 -9 20 3 3
-8 13 -25 22 -29 15 -31 14 -31 -3 0 -10 6 -24 13 -31 10 -12 8 -13 -8 -6 -11
4 -28 9 -37 12 -9 3 -24 19 -33 36 -33 65 -43 78 -51 75 -4 -2 -7 -16 -5 -32
l3 -30 -34 30 c-21 18 -30 32 -24 36 11 7 -19 37 -37 38 -4 0 -12 11 -17 25
-12 32 -34 34 -24 3 4 -13 9 -29 11 -35 3 -7 2 -13 -2 -13 -13 0 -85 74 -85
88 0 14 -49 72 -61 72 -5 0 -2 -19 7 -42 15 -45 12 -57 -10 -39 -8 6 -20 10
-27 9 -7 -2 -15 5 -17 14 -2 13 1 16 14 11 12 -4 15 -2 12 8 -2 8 -14 15 -26
17 -13 2 -24 13 -28 27 -3 13 -17 34 -31 47 l-26 23 7 -25 c4 -14 10 -33 13
-42 3 -12 0 -18 -10 -18 -20 0 -31 17 -15 23 8 3 3 9 -12 15 -14 5 -34 19 -44
31 -19 21 -19 21 0 22 18 0 18 1 -1 14 -11 8 -29 21 -40 30 -19 15 -19 16 -1
11 16 -6 17 -4 6 9 -24 29 -33 17 -26 -37 6 -43 5 -50 -7 -40 -8 7 -16 9 -20
6 -8 -9 -29 35 -21 47 3 6 -1 16 -9 22 -8 7 -17 21 -19 32 -2 11 -13 24 -24
30 -11 6 -19 15 -17 21 2 7 -3 14 -12 18 -16 6 -15 -13 6 -78 11 -34 8 -39
-15 -30 -10 4 -14 13 -11 24 4 11 -3 20 -19 28 -15 7 -27 23 -31 44 -4 18 -16
39 -26 46 -11 7 -19 21 -19 31 0 11 -7 22 -16 25 -23 9 -28 1 -15 -22 12 -23
15 -82 4 -82 -19 1 -35 19 -30 34 4 11 -3 22 -21 33 -34 22 -43 34 -39 53 2 8
-7 26 -20 40 -24 25 -27 21 -23 -27 1 -13 -3 -23 -8 -23 -11 0 -42 33 -42 46
0 14 -77 93 -84 86 -3 -3 -6 -19 -6 -35 0 -22 -4 -28 -16 -23 -9 3 -18 6 -20
6 -2 0 -4 5 -4 10 0 6 7 10 16 10 8 0 12 5 9 10 -3 6 -13 10 -21 10 -19 0 -75
63 -62 71 9 6 -16 69 -27 69 -3 0 -3 -22 0 -50 5 -53 4 -55 -24 -40 -17 8 -50
72 -57 108 -3 16 -54 68 -54 56 0 -5 4 -24 9 -42 6 -21 6 -32 0 -32 -6 0 -3
-7 6 -16 18 -18 15 -27 -6 -19 -15 6 -65 85 -61 97 1 4 -14 31 -34 60 l-36 53
7 -55 7 -54 -23 16 c-13 8 -26 24 -28 34 -2 10 -15 28 -28 40 -18 16 -21 23
-12 26 12 4 12 7 0 21 -7 10 -20 17 -27 17 -8 0 -14 6 -14 14 0 17 -18 31 -27
22 -3 -3 -1 -12 6 -19 6 -8 13 -36 16 -63 4 -44 4 -46 -7 -22 -7 16 -19 30
-29 33 -9 3 -24 14 -34 25 -17 19 -17 20 1 21 17 0 17 1 -3 16 -13 8 -23 23
-23 33 0 20 -46 54 -55 41 -3 -6 -1 -28 4 -51 7 -30 6 -40 -2 -37 -7 2 -12 9
-12 16 0 7 -8 18 -17 25 -10 7 -18 20 -18 28 0 8 -9 24 -20 36 -11 12 -20 24
-20 27 0 11 -28 35 -40 35 -6 0 -9 -8 -6 -17z m416 -333 c0 -5 -4 -10 -10 -10
-5 0 -10 5 -10 10 0 6 5 10 10 10 6 0 10 -4 10 -10z m-134 -137 c-7 -7 -26 7
-26 19 0 6 6 6 15 -2 9 -7 13 -15 11 -17z m649 -193 c3 -5 2 -10 -4 -10 -5 0
-13 5 -16 10 -3 6 -2 10 4 10 5 0 13 -4 16 -10z m1060 -660 c3 -5 1 -10 -4
-10 -6 0 -11 5 -11 10 0 6 2 10 4 10 3 0 8 -4 11 -10z m245 -140 c0 -5 -4 -10
-10 -10 -5 0 -10 5 -10 10 0 6 5 10 10 10 6 0 10 -4 10 -10z m125 -80 c3 -5 1
-10 -4 -10 -6 0 -11 5 -11 10 0 6 2 10 4 10 3 0 8 -4 11 -10z"/>
<path d="M913 1805 c-8 -9 -9 -16 -3 -20 6 -3 13 1 16 10 9 21 2 26 -13 10z"/>
<path d="M1420 1809 c0 -6 -14 -29 -31 -50 l-31 -39 34 7 c18 3 43 13 55 22
33 23 23 70 -14 71 -7 0 -13 -5 -13 -11z"/>
<path d="M2216 1801 c-26 -5 -28 -7 -12 -20 13 -11 14 -16 4 -29 -11 -13 -10
-15 5 -9 10 4 32 7 48 7 37 0 50 27 24 46 -20 15 -24 15 -69 5z"/>
<path d="M4351 1786 c-6 -7 -25 -19 -41 -26 -33 -14 -42 -35 -10 -25 14 4 20
2 20 -8 0 -8 -8 -17 -17 -21 -10 -3 -26 -11 -36 -18 -14 -11 -19 -10 -27 2 -8
12 -12 11 -30 -8 -12 -12 -19 -26 -16 -31 4 -5 -14 -21 -38 -35 -51 -30 -60
-32 -52 -11 4 12 2 13 -13 6 -10 -6 -23 -17 -31 -25 -11 -14 -9 -16 15 -16 27
0 28 0 10 -20 -10 -11 -26 -20 -35 -20 -9 0 -22 -6 -29 -12 -10 -11 -11 -9 -5
6 6 17 4 18 -17 12 -13 -4 -31 -8 -39 -8 -8 -1 -26 -9 -39 -20 l-24 -18 37 0
c20 0 36 -3 36 -7 -1 -16 -52 -45 -84 -47 -18 -2 -38 -6 -44 -10 -6 -3 -14 -2
-17 4 -5 8 -12 7 -22 -2 -14 -11 -11 -14 23 -25 l39 -11 -32 -7 c-18 -4 -33
-12 -33 -17 0 -5 -9 -7 -20 -3 -10 3 -30 0 -42 -7 -13 -7 -27 -11 -32 -10 -14
4 -46 -9 -46 -19 0 -5 16 -9 36 -9 24 0 34 -4 31 -12 -2 -7 -10 -12 -17 -10
-7 1 -23 -4 -36 -13 -13 -8 -36 -15 -51 -15 -39 0 -103 -19 -103 -30 0 -6 20
-10 45 -10 25 0 45 -2 45 -5 0 -9 -52 -55 -62 -55 -5 0 0 12 9 27 19 29 8 27
-29 -5 -10 -8 -30 -14 -45 -14 -15 0 -36 -4 -45 -9 -21 -11 -24 -31 -5 -28 6
1 23 1 36 0 20 -1 22 -3 10 -17 -8 -10 -15 -12 -17 -5 -2 7 -20 1 -47 -15 -36
-21 -44 -22 -47 -9 -3 13 -8 12 -36 -5 -36 -22 -35 -40 2 -40 34 0 38 -11 11
-31 -17 -14 -29 -17 -47 -11 -27 11 -98 4 -115 -10 -9 -7 -13 -7 -13 2 0 10
-3 10 -15 0 -22 -18 -11 -27 46 -35 31 -4 48 -11 46 -19 -2 -6 -14 -10 -27 -8
-12 1 -28 -3 -35 -8 -8 -6 -33 -11 -57 -11 -37 0 -74 -2 -118 -8 -5 0 -10 -8
-10 -16 0 -10 10 -15 33 -15 18 0 41 -6 51 -13 17 -12 17 -14 0 -28 -13 -11
-18 -11 -21 -1 -5 13 -43 17 -43 4 0 -15 -45 -30 -62 -21 -10 5 -30 4 -54 -5
l-39 -13 53 -17 c29 -10 51 -20 48 -23 -3 -3 -33 -7 -68 -10 -35 -2 -74 -11
-86 -19 -14 -9 -34 -13 -47 -10 -24 6 -44 -9 -30 -22 4 -4 10 -2 12 5 3 8 15
5 39 -9 37 -22 42 -33 18 -42 -25 -9 -27 -7 -13 10 11 14 10 15 -11 12 -14 -2
-24 -9 -23 -15 3 -13 -80 -34 -85 -21 -5 12 -72 10 -72 -2 0 -5 11 -10 25 -10
14 0 37 -7 51 -16 l24 -17 -24 -12 c-13 -7 -52 -13 -86 -14 -78 -1 -132 -10
-124 -22 3 -5 18 -9 33 -9 41 0 91 -11 91 -20 0 -14 -33 -21 -119 -26 -47 -3
-88 -7 -91 -10 -8 -9 32 -35 62 -41 15 -3 25 -9 22 -14 -10 -18 9 -8 57 26 27
19 52 35 55 35 3 0 38 22 77 49 40 26 171 113 292 193 564 372 595 392 616
417 9 11 27 21 40 23 13 2 23 9 22 15 -1 6 5 17 14 25 12 9 15 9 9 1 -13 -24
9 -13 48 22 21 19 44 35 51 35 7 0 33 18 58 40 25 22 50 40 56 40 14 0 87 45
96 59 3 6 25 19 48 29 23 11 53 31 66 46 15 16 34 26 50 25 14 0 20 -3 14 -6
-22 -8 -14 -30 16 -43 16 -6 44 -23 62 -36 18 -13 48 -29 67 -35 19 -6 59 -29
90 -50 51 -36 91 -50 93 -31 0 4 2 16 4 28 3 14 -9 33 -38 60 -55 53 -67 59
-60 34 6 -21 5 -21 -31 1 -40 23 -54 39 -35 39 17 0 1 13 -34 28 -16 7 -26 8
-22 2 9 -15 0 -12 -44 11 l-40 21 27 22 c27 23 66 46 76 46 3 0 5 -6 4 -12 -2
-7 4 -13 12 -13 9 0 15 9 15 24 0 25 20 43 125 114 27 18 40 34 38 45 -2 9
-10 16 -16 15 -7 -2 -12 4 -12 12 0 13 -6 12 -40 -5 -22 -11 -40 -16 -40 -11
0 5 6 11 13 14 6 2 9 7 6 11 -3 4 -11 0 -18 -8z m1 -78 c-7 -7 -12 -8 -12 -2
0 14 12 26 19 19 2 -3 -1 -11 -7 -17z m-122 -78 c0 -5 -5 -10 -11 -10 -5 0 -7
5 -4 10 3 6 8 10 11 10 2 0 4 -4 4 -10z m-220 -154 c0 -3 -4 -8 -10 -11 -5 -3
-10 -1 -10 4 0 6 5 11 10 11 6 0 10 -2 10 -4z m235 -16 c3 -6 -1 -7 -9 -4 -18
7 -21 14 -7 14 6 0 13 -4 16 -10z m130 -70 c3 -5 1 -10 -4 -10 -6 0 -11 5 -11
10 0 6 2 10 4 10 3 0 8 -4 11 -10z"/>
<path d="M2986 1662 c-52 -71 -105 -137 -116 -147 -11 -10 -20 -26 -20 -36 0
-9 -16 -31 -35 -48 -33 -29 -34 -31 -15 -41 26 -14 70 8 100 51 17 22 20 33
11 42 -20 20 -12 37 17 37 48 0 67 11 85 47 14 27 15 38 6 44 -19 11 -3 38 28
45 15 4 43 22 60 42 l33 34 -21 29 c-11 16 -24 29 -29 29 -4 0 -51 -58 -104
-128z"/>
<path d="M1766 1748 c-8 -18 -12 -36 -10 -40 9 -15 -17 -48 -38 -48 -15 0 -19
5 -15 20 3 12 0 20 -6 20 -22 -1 -47 -27 -47 -49 0 -17 5 -21 18 -17 9 2 41 8
70 11 51 7 55 9 73 49 15 34 16 44 5 60 -21 32 -35 30 -50 -6z"/>
<path d="M1667 1749 c-9 -6 -17 -14 -17 -19 0 -16 30 -11 37 5 8 21 1 25 -20
14z"/>
<path d="M1550 1725 c0 -20 28 -31 43 -16 13 13 10 16 -20 25 -17 6 -23 3 -23
-9z"/>
<path d="M58 1695 c-3 -4 -2 -20 3 -38 10 -37 7 -42 -19 -28 -27 14 -34 14
-30 -3 3 -15 122 -107 170 -132 40 -21 26 -29 -61 -38 -35 -3 -69 -10 -76 -16
-6 -5 -15 -7 -18 -3 -4 3 -7 1 -7 -5 0 -7 9 -12 20 -12 11 0 20 -4 20 -9 0 -5
9 -7 20 -4 26 7 26 -14 0 -22 -11 -3 -20 -10 -20 -15 0 -25 30 -17 104 28 60
37 91 50 115 49 41 -2 53 19 18 32 -28 11 -43 41 -27 51 8 5 7 9 -3 13 -9 3
-21 18 -29 34 -7 15 -22 29 -32 31 -17 4 -18 -1 -13 -44 l5 -48 -29 34 c-16
19 -29 42 -29 50 0 20 -73 104 -82 95z"/>
<path d="M2490 1660 c0 -11 7 -23 15 -26 8 -4 15 -12 15 -19 0 -7 -7 -18 -15
-25 -21 -17 -19 -23 11 -37 24 -11 26 -10 41 25 8 20 17 51 20 69 l6 33 -47 0
c-40 0 -46 -3 -46 -20z"/>
<path d="M4461 1650 c-23 -17 -46 -28 -51 -25 -6 3 -7 -1 -4 -10 5 -12 10 -13
17 -6 6 6 15 11 19 11 17 0 7 -17 -23 -39 -22 -16 -34 -20 -42 -12 -7 7 -19 4
-39 -10 -25 -18 -26 -22 -13 -35 8 -9 19 -12 25 -9 5 3 10 -1 10 -11 0 -13 6
-15 32 -10 18 3 41 15 53 25 11 10 36 27 55 36 84 43 109 77 75 105 -13 10
-23 10 -57 -3 -40 -16 -40 -16 -23 3 25 28 15 25 -34 -10z m21 -62 c-7 -7 -12
-8 -12 -2 0 14 12 26 19 19 2 -3 -1 -11 -7 -17z"/>
<path d="M1424 1663 c-12 -2 -31 -14 -42 -26 l-21 -22 51 1 c50 0 78 20 63 44
-6 10 -13 11 -51 3z"/>
<path d="M1295 1637 c-34 -25 -41 -43 -24 -63 16 -20 29 -17 29 5 0 10 9 30
20 44 34 43 23 49 -25 14z"/>
<path d="M1560 1651 c0 -5 7 -14 15 -21 13 -10 15 -9 15 9 0 12 -6 21 -15 21
-8 0 -15 -4 -15 -9z"/>
<path d="M2416 1643 c-6 -14 -5 -15 5 -6 7 7 10 15 7 18 -3 3 -9 -2 -12 -12z"/>
<path d="M2200 1629 c-6 -10 -10 -30 -10 -45 l0 -27 26 24 25 24 -25 -55 c-23
-49 -26 -68 -26 -166 0 -97 2 -113 20 -129 18 -17 19 -16 26 9 3 15 3 58 0 96
-6 58 -4 75 13 109 25 48 26 52 5 44 -14 -5 -15 -1 -9 28 4 19 11 36 15 39 5
3 6 17 3 32 -6 33 -49 45 -63 17z"/>
<path d="M2641 1579 c-12 -32 -30 -68 -40 -80 -15 -19 -20 -20 -40 -9 -18 9
-30 9 -47 1 -24 -10 -24 -13 -24 -155 0 -80 4 -147 9 -150 5 -3 16 5 25 19 12
18 16 49 16 123 0 116 7 128 69 117 37 -6 41 -5 56 25 46 90 52 140 16 159
-14 8 -20 0 -40 -50z"/>
<path d="M4314 1615 c-15 -11 -16 -14 -3 -15 8 0 24 7 35 15 15 11 16 14 3 15
-8 0 -24 -7 -35 -15z"/>
<path d="M2340 1611 c0 -5 5 -33 11 -62 10 -44 13 -49 22 -33 5 10 19 29 30
42 16 18 17 22 5 22 -8 0 -27 9 -42 21 -14 11 -26 16 -26 10z"/>
<path d="M3099 1603 c-31 -3 -36 -7 -32 -24 6 -22 12 -23 78 -5 l50 13 -28 12
c-16 6 -29 10 -30 9 -1 -1 -18 -3 -38 -5z"/>
<path d="M1650 1581 c0 -10 9 -21 20 -24 11 -3 20 -10 20 -16 0 -6 -9 -15 -20
-21 -31 -17 -25 -37 10 -32 25 4 29 8 24 27 -4 17 0 24 15 28 27 7 28 37 1 37
-11 0 -20 5 -20 10 0 6 -11 10 -25 10 -18 0 -25 -5 -25 -19z"/>
<path d="M2070 1589 c0 -5 5 -7 10 -4 6 3 10 8 10 11 0 2 -4 4 -10 4 -5 0 -10
-5 -10 -11z"/>
<path d="M1401 1540 c-27 -23 -30 -28 -12 -23 16 4 31 -3 53 -23 25 -24 29
-26 25 -9 -3 11 -8 35 -12 53 -4 17 -10 32 -13 32 -4 -1 -22 -14 -41 -30z"/>
<path d="M2027 1550 c-6 -24 12 -38 24 -19 10 16 7 31 -8 36 -6 2 -13 -5 -16
-17z"/>
<path d="M1810 1551 c0 -6 -9 -31 -21 -56 -14 -30 -28 -45 -40 -45 -10 0 -19
-5 -19 -11 0 -7 -10 -9 -24 -5 -14 3 -32 3 -40 0 -22 -8 -20 -41 3 -54 26 -13
61 -13 61 1 0 8 15 10 45 6 38 -4 47 -1 56 14 14 27 7 151 -8 157 -7 2 -13 -1
-13 -7z"/>
<path d="M2116 1551 c-4 -7 -5 -15 -2 -18 9 -9 19 4 14 18 -4 11 -6 11 -12 0z"/>
<path d="M324 1532 c15 -54 18 -62 25 -62 5 0 14 7 21 15 10 12 9 16 -4 21 -9
3 -16 12 -16 19 0 7 -7 16 -16 19 -11 4 -14 1 -10 -12z"/>
<path d="M3256 1524 c-3 -9 -29 -14 -82 -16 -76 -3 -77 -3 -78 -30 -1 -15 -9
-35 -19 -46 -9 -10 -17 -26 -17 -35 0 -15 4 -15 48 1 35 14 46 23 44 36 -3 14
1 17 12 13 9 -4 16 -2 16 3 0 5 25 9 56 9 41 0 59 4 68 17 12 16 15 16 42 -3
36 -26 110 -63 124 -63 15 0 12 46 -5 60 -12 10 -18 10 -30 0 -19 -16 -48 -8
-117 33 -42 26 -58 31 -62 21z"/>
<path d="M4495 1530 c-11 -5 -30 -17 -43 -27 l-22 -18 42 -28 c51 -33 66 -34
77 -4 7 17 4 27 -16 46 -20 19 -22 25 -11 32 17 11 -1 10 -27 -1z"/>
<path d="M1534 1463 c5 -57 18 -83 42 -83 21 0 17 28 -6 35 -24 8 -27 47 -5
65 18 15 13 26 -15 33 -19 5 -20 1 -16 -50z"/>
<path d="M2075 1480 c-3 -5 -2 -10 4 -10 5 0 13 5 16 10 3 6 2 10 -4 10 -5 0
-13 -4 -16 -10z"/>
<path d="M2992 1469 c-28 -8 -31 -12 -22 -29 14 -26 15 -25 40 10 12 17 20 30
18 29 -2 0 -18 -5 -36 -10z"/>
<path d="M2361 1450 c21 -32 69 -40 69 -12 0 14 -7 20 -22 19 -13 0 -32 4 -43
8 -19 9 -19 8 -4 -15z"/>
<path d="M1447 1454 c-9 -10 10 -41 29 -48 25 -10 36 15 17 36 -16 18 -35 23
-46 12z"/>
<path d="M2093 1417 c-38 -26 -39 -31 -13 -57 30 -30 50 -16 50 36 0 24 -1 44
-2 43 -2 0 -17 -11 -35 -22z"/>
<path d="M1390 1412 c0 -12 34 -42 48 -42 17 0 15 15 -6 33 -20 18 -42 22 -42
9z"/>
<path d="M1896 1391 c13 -65 -44 -98 -154 -88 -63 6 -64 6 -40 -12 37 -29 96
-44 149 -38 93 11 114 41 80 120 -23 52 -44 63 -35 18z"/>
<path d="M4115 1409 c-4 -6 -12 -8 -19 -6 -7 3 -23 -4 -37 -14 l-24 -19 33 0
c70 0 6 -48 -75 -56 -72 -7 -87 -19 -36 -29 l38 -8 -35 -15 c-19 -9 -43 -14
-52 -13 -9 1 -28 -5 -42 -14 -14 -9 -29 -14 -34 -11 -5 3 -18 -1 -28 -9 -18
-13 -16 -14 19 -15 41 0 49 -24 10 -26 -11 -1 -31 -8 -43 -17 -12 -8 -28 -13
-35 -11 -18 7 -95 -15 -95 -26 0 -6 18 -10 40 -10 22 0 40 -2 40 -4 0 -3 -11
-16 -24 -30 -31 -34 -52 -34 -30 -1 20 31 16 31 -26 0 -20 -15 -41 -23 -52
-19 -9 3 -30 -2 -45 -10 -15 -8 -23 -16 -18 -17 18 -4 40 -6 64 -8 20 -1 22
-3 11 -16 -9 -10 -17 -12 -23 -6 -6 6 -23 1 -48 -15 -45 -28 -53 -30 -45 -9 7
20 4 19 -38 -6 -25 -15 -36 -17 -36 -8 0 10 -3 10 -12 1 -16 -16 -7 -23 41
-29 23 -3 41 -8 41 -11 0 -2 -10 -13 -22 -23 -23 -21 -44 -24 -52 -10 -9 13
-88 1 -108 -17 -11 -9 -18 -11 -18 -4 0 6 -7 9 -15 6 -8 -4 -15 -10 -15 -16 0
-5 4 -7 8 -4 5 3 26 0 48 -6 74 -20 70 -18 54 -29 -12 -9 -12 -10 2 -5 16 5
196 122 208 136 3 3 28 21 55 39 28 19 54 41 58 48 4 7 17 13 28 13 12 0 23 8
26 20 3 11 10 20 15 20 5 0 6 -5 2 -11 -11 -18 28 6 51 31 11 12 41 33 66 45
25 13 51 31 59 40 8 9 34 27 59 40 25 13 57 35 70 49 14 14 33 26 42 26 10 0
41 20 69 45 50 44 50 45 24 51 -14 4 -36 2 -49 -4 -20 -9 -23 -9 -18 3 6 17
-22 21 -32 4z m25 -59 c0 -5 -5 -10 -11 -10 -5 0 -7 5 -4 10 3 6 8 10 11 10 2
0 4 -4 4 -10z"/>
<path d="M2998 1373 c7 -3 16 -2 19 1 4 3 -2 6 -13 5 -11 0 -14 -3 -6 -6z"/>
<path d="M3274 1336 l-21 -42 28 -13 c16 -7 33 -10 39 -6 16 10 12 61 -7 83
-18 20 -18 20 -39 -22z"/>
<path d="M1356 1323 c0 -27 6 -48 15 -54 36 -22 45 0 20 50 -29 55 -36 56 -35
4z"/>
<path d="M3105 1325 c-22 -13 -57 -27 -77 -30 -21 -4 -38 -10 -38 -14 0 -15
37 -41 58 -41 36 0 128 39 152 65 27 29 26 31 -20 38 -26 4 -46 -1 -75 -18z"/>
<path d="M960 1330 c0 -12 28 -25 36 -17 3 3 -4 10 -15 17 -15 7 -21 7 -21 0z"/>
<path d="M710 1280 c0 -5 5 -10 11 -10 5 0 7 5 4 10 -3 6 -8 10 -11 10 -2 0
-4 -4 -4 -10z"/>
<path d="M830 1196 c0 -9 8 -14 20 -13 11 1 20 2 20 4 0 1 -9 7 -20 13 -16 8
-20 8 -20 -4z"/>
<path d="M977 1068 c2 -24 6 -48 8 -55 2 -7 -2 -10 -11 -6 -7 3 -14 0 -14 -6
0 -6 3 -11 8 -11 4 0 63 -36 131 -80 69 -44 128 -80 132 -80 14 0 3 30 -19 50
-12 12 -22 27 -22 35 0 7 -11 27 -25 43 -14 17 -25 37 -25 45 0 15 -29 32 -38
22 -3 -3 0 -11 6 -17 7 -7 12 -29 12 -50 0 -35 -2 -38 -19 -28 -11 6 -17 17
-15 27 3 12 -5 23 -25 34 -18 11 -31 28 -35 47 -4 16 -17 39 -30 51 l-23 22 4
-43z"/>
<path d="M3281 1086 c-8 -9 -8 -16 -2 -20 6 -4 15 3 21 14 12 23 -2 27 -19 6z"/>
<path d="M1255 885 c8 -35 9 -57 2 -64 -6 -6 6 -19 34 -37 24 -15 71 -44 105
-66 34 -21 66 -38 73 -38 6 0 11 -4 11 -8 0 -4 25 -21 57 -37 31 -17 64 -38
74 -47 10 -10 25 -15 34 -12 9 4 15 0 15 -10 0 -9 16 -22 35 -30 19 -8 52 -28
72 -45 21 -16 50 -33 66 -37 15 -3 32 -14 37 -24 6 -10 34 -30 62 -44 29 -15
64 -38 77 -51 13 -14 26 -25 30 -25 4 0 22 13 40 29 l32 29 -23 22 c-13 13
-17 20 -10 16 6 -4 12 -5 12 -2 0 6 -55 36 -65 36 -3 0 1 -13 10 -30 18 -34
17 -35 -22 -18 -32 15 -54 38 -49 54 2 6 -5 16 -16 23 -11 7 -17 18 -14 26 2
7 -2 16 -11 19 -22 9 -24 4 -14 -32 11 -35 -2 -44 -19 -13 -5 11 -20 23 -32
27 -22 7 -22 7 -3 14 18 7 17 9 -12 26 -18 11 -33 24 -33 30 0 14 -28 39 -36
32 -2 -3 0 -18 6 -33 6 -15 9 -29 7 -32 -5 -5 -82 69 -80 77 1 3 -16 26 -38
51 -23 25 -38 35 -34 24 24 -71 24 -72 -5 -72 -16 0 -32 8 -39 19 -10 17 -9
18 16 12 22 -5 26 -4 16 6 -6 7 -22 17 -34 24 -13 6 -26 22 -29 35 -3 13 -16
31 -29 40 -27 17 -27 22 -4 -59 6 -22 5 -24 -10 -11 -9 7 -15 17 -12 21 3 4
-14 20 -36 36 -32 22 -37 29 -25 34 14 5 11 10 -13 28 -48 35 -61 29 -41 -22
11 -31 12 -30 -29 -10 -26 13 -32 21 -28 40 2 13 -2 29 -9 35 -8 6 -14 18 -14
25 0 8 -9 19 -20 26 -11 7 -20 18 -20 24 0 7 -6 14 -14 17 -12 5 -12 -3 -1
-48z"/>
<path d="M1370 841 c0 -6 9 -9 19 -8 11 0 17 5 15 9 -7 11 -34 10 -34 -1z"/>
<path d="M1710 839 c0 -5 5 -7 10 -4 6 3 10 8 10 11 0 2 -4 4 -10 4 -5 0 -10
-5 -10 -11z"/>
<path d="M3315 809 c-5 -7 -24 -9 -51 -6 -23 2 -46 1 -51 -4 -4 -4 -24 -9 -43
-11 -47 -4 -41 -21 11 -30 51 -9 56 -13 39 -33 -9 -11 -16 -12 -26 -4 -10 8
-22 6 -48 -11 -27 -16 -40 -19 -55 -11 -13 8 -30 7 -56 -2 l-36 -13 51 -18
c28 -10 49 -21 46 -24 -3 -3 -32 -7 -63 -9 -89 -7 -157 -46 -103 -60 26 -7 26
-25 -1 -41 -19 -12 -20 -11 -14 7 7 23 -12 30 -21 7 -7 -19 -84 -43 -92 -28
-4 6 -20 9 -35 8 -35 -4 -47 -16 -19 -17 30 -2 34 -3 60 -18 23 -12 23 -13 5
-25 -10 -7 -45 -13 -78 -14 -80 -2 -136 -12 -129 -23 3 -5 21 -9 40 -9 19 0
34 -5 34 -11 0 -6 9 -8 21 -4 15 5 20 3 17 -6 -5 -15 -19 -17 -105 -22 -29 -2
-55 -6 -59 -10 -8 -8 56 -47 77 -47 9 0 22 7 30 16 7 8 26 22 43 31 46 23 349
224 362 240 6 7 15 13 20 13 17 0 273 175 270 185 -4 15 -33 18 -41 4z"/>
<path d="M2860 590 c0 -5 4 -10 9 -10 6 0 13 5 16 10 3 6 -1 10 -9 10 -9 0
-16 -4 -16 -10z"/>
<path d="M2200 380 c0 -5 4 -10 9 -10 6 0 13 5 16 10 3 6 -1 10 -9 10 -9 0
-16 -4 -16 -10z"/>
<path d="M2260 336 c-8 -8 -26 -17 -39 -21 -20 -6 -23 -4 -17 10 6 16 5 16
-18 2 -13 -9 -32 -13 -43 -11 -11 3 -27 -1 -35 -10 -9 -8 -19 -12 -23 -8 -5 4
-5 2 -1 -5 3 -6 21 -15 39 -18 17 -4 36 -10 42 -13 12 -8 -43 -20 -113 -26
-78 -7 -122 -46 -51 -46 34 0 49 -19 20 -27 -12 -3 -21 -12 -21 -19 0 -16 31
-19 46 -4 5 5 36 26 68 45 67 40 86 39 136 -9 19 -18 49 -37 65 -43 17 -6 57
-29 89 -52 33 -22 65 -41 73 -41 7 0 18 12 24 26 8 24 6 30 -23 57 -29 26 -30
28 -9 22 16 -5 21 -4 17 4 -4 6 -13 11 -21 11 -8 0 -18 6 -22 13 -4 6 -16 19
-27 27 -18 14 -18 13 -11 -19 l7 -35 -43 34 c-64 49 -67 52 -36 41 42 -16 46
-13 12 9 -16 11 -39 20 -50 19 -34 -2 -45 1 -45 11 0 6 7 10 15 10 8 0 15 5
15 10 0 6 10 20 21 31 17 17 19 23 8 30 -20 12 -33 11 -49 -5z m30 -126 c0 -5
-2 -10 -4 -10 -3 0 -8 5 -11 10 -3 6 -1 10 4 10 6 0 11 -4 11 -10z m130 -80
c0 -5 -4 -10 -9 -10 -6 0 -13 5 -16 10 -3 6 1 10 9 10 9 0 16 -4 16 -10z"/>
<path d="M2375 266 c11 -7 30 -16 43 -20 12 -4 20 -12 17 -17 -8 -12 21 -23
41 -15 22 9 -61 66 -96 66 -24 0 -24 0 -5 -14z"/>
<path d="M2164 109 c-3 -5 -10 -7 -15 -4 -5 4 -15 3 -21 -2 -7 -4 -16 -8 -20
-8 -19 0 -11 -20 10 -23 12 -2 19 -8 16 -14 -4 -6 2 -6 15 1 16 9 21 9 21 0 0
-6 -9 -13 -20 -16 -23 -6 -26 -21 -5 -29 14 -6 100 42 155 85 l25 20 -78 -1
c-42 0 -80 -5 -83 -9z"/>
</g>
</svg>
